HIERARCHY
ROOT Hips
{
	OFFSET 0.000000 121.760803 0.000000
	CHANNELS 6 Xposition Yposition Zposition Xrotation Yrotation Zrotation 
	JOINT Spine
	{
		OFFSET 0.072000 7.257294 -0.789700
		CHANNELS 3 Xrotation Yrotation Zrotation
		JOINT Spine1
		{
			OFFSET 0.000000 12.508769 -0.658067
			CHANNELS 3 Xrotation Yrotation Zrotation
			JOINT Spine1_split
			{
				OFFSET 0.000000 12.508769 -0.658067
				CHANNELS 3 Xrotation Yrotation Zrotation
				JOINT Spine2
				{
					OFFSET 0.000000 12.508769 -0.658067
					CHANNELS 3 Xrotation Yrotation Zrotation
					JOINT Neck
					{
						OFFSET 0.000000 14.033295 7.520400
						CHANNELS 3 Xrotation Yrotation Zrotation
						JOINT Head
						{
							OFFSET 0.000000 8.198502 5.703100
							CHANNELS 3 Xrotation Yrotation Zrotation
							JOINT HeadTop_End
							{
								OFFSET 0.000000 17.760803 13.332701
								CHANNELS 3 Xrotation Yrotation Zrotation
								End Site
								{
									OFFSET 0.000000 0.000000 0.000000
								}
							}
						}
					}
					JOINT LeftShoulder
					{
						OFFSET 6.292450 5.785301 -0.669000
						CHANNELS 3 Xrotation Yrotation Zrotation
						JOINT LeftShoulder_split
						{
							OFFSET 6.292450 5.785301 -0.669000
							CHANNELS 3 Xrotation Yrotation Zrotation
							JOINT LeftArm
							{
								OFFSET 13.907140 -6.093903 1.965100
								CHANNELS 3 Xrotation Yrotation Zrotation
								JOINT LeftForeArm
								{
									OFFSET 34.140198 0.000000 0.000000
									CHANNELS 3 Xrotation Yrotation Zrotation
									JOINT LeftHand
									{
										OFFSET 40.960209 0.000000 0.000000
										CHANNELS 3 Xrotation Yrotation Zrotation
										JOINT LeftHandThumb1
										{
											OFFSET 10.006996 -7.170425 9.573125
											CHANNELS 3 Xrotation Yrotation Zrotation
											JOINT LeftHandThumb2
											{
												OFFSET 1.835007 -1.059448 1.059443
												CHANNELS 3 Xrotation Yrotation Zrotation
												JOINT LeftHandThumb3
												{
													OFFSET 2.112267 -1.219513 1.219518
													CHANNELS 3 Xrotation Yrotation Zrotation
													JOINT LeftHandThumb4
													{
														OFFSET 4.843811 -2.796570 2.796576
														CHANNELS 3 Xrotation Yrotation Zrotation
														End Site
														{
															OFFSET 0.000000 0.000000 0.000000
														}
													}
												}
											}
										}
										JOINT LeftHandIndex1
										{
											OFFSET 18.389847 -0.922348 4.596882
											CHANNELS 3 Xrotation Yrotation Zrotation
											JOINT LeftHandIndex2
											{
												OFFSET 4.711273 0.000000 0.000000
												CHANNELS 3 Xrotation Yrotation Zrotation
												JOINT LeftHandIndex3
												{
													OFFSET 2.886131 0.000000 0.000000
													CHANNELS 3 Xrotation Yrotation Zrotation
													JOINT LeftHandIndex4
													{
														OFFSET 6.145912 0.000000 0.000000
														CHANNELS 3 Xrotation Yrotation Zrotation
														End Site
														{
															OFFSET 0.000000 0.000000 0.000000
														}
													}
												}
											}
										}
										JOINT LeftHandMiddle1
										{
											OFFSET 18.013008 0.000000 0.000000
											CHANNELS 3 Xrotation Yrotation Zrotation
											JOINT LeftHandMiddle2
											{
												OFFSET 4.946693 0.000000 0.000000
												CHANNELS 3 Xrotation Yrotation Zrotation
												JOINT LeftHandMiddle3
												{
													OFFSET 3.342232 0.000000 0.000000
													CHANNELS 3 Xrotation Yrotation Zrotation
													JOINT LeftHandMiddle4
													{
														OFFSET 4.461754 0.000000 0.000000
														CHANNELS 3 Xrotation Yrotation Zrotation
														End Site
														{
															OFFSET 0.000000 0.000000 0.000000
														}
													}
												}
											}
										}
										JOINT LeftHandRing1
										{
											OFFSET 15.849892 -0.102921 -4.126150
											CHANNELS 3 Xrotation Yrotation Zrotation
											JOINT LeftHandRing2
											{
												OFFSET 3.527054 0.000000 0.000000
												CHANNELS 3 Xrotation Yrotation Zrotation
												JOINT LeftHandRing3
												{
													OFFSET 2.961098 0.000000 0.000000
													CHANNELS 3 Xrotation Yrotation Zrotation
													JOINT LeftHandRing4
													{
														OFFSET 4.927200 0.000000 0.000000
														CHANNELS 3 Xrotation Yrotation Zrotation
														End Site
														{
															OFFSET 0.000000 0.000000 0.000000
														}
													}
												}
											}
										}
										JOINT LeftHandPinky1
										{
											OFFSET 12.791824 -0.832031 -6.799156
											CHANNELS 3 Xrotation Yrotation Zrotation
											JOINT LeftHandPinky2
											{
												OFFSET 3.327133 0.000000 0.000000
												CHANNELS 3 Xrotation Yrotation Zrotation
												JOINT LeftHandPinky3
												{
													OFFSET 3.014900 0.000000 0.000000
													CHANNELS 3 Xrotation Yrotation Zrotation
													JOINT LeftHandPinky4
													{
														OFFSET 5.847786 0.000000 0.000000
														CHANNELS 3 Xrotation Yrotation Zrotation
														End Site
														{
															OFFSET 0.000000 0.000000 0.000000
														}
													}
												}
											}
										}
									}
								}
							}
						}
					}
					JOINT RightShoulder
					{
						OFFSET -6.292450 5.785301 -0.669000
						CHANNELS 3 Xrotation Yrotation Zrotation
						JOINT RightShoulder_split
						{
							OFFSET -6.292450 5.785301 -0.669000
							CHANNELS 3 Xrotation Yrotation Zrotation
							JOINT RightArm
							{
								OFFSET -13.907140 -6.093903 1.965100
								CHANNELS 3 Xrotation Yrotation Zrotation
								JOINT RightForeArm
								{
									OFFSET -34.140198 0.000000 0.000000
									CHANNELS 3 Xrotation Yrotation Zrotation
									JOINT RightHand
									{
										OFFSET -40.960209 0.000000 0.000000
										CHANNELS 3 Xrotation Yrotation Zrotation
										JOINT RightHandThumb1
										{
											OFFSET -10.007050 -7.170456 9.573117
											CHANNELS 3 Xrotation Yrotation Zrotation
											JOINT RightHandThumb2
											{
												OFFSET -1.835007 -1.059448 1.059443
												CHANNELS 3 Xrotation Yrotation Zrotation
												JOINT RightHandThumb3
												{
													OFFSET -2.112267 -1.219513 1.219518
													CHANNELS 3 Xrotation Yrotation Zrotation
													JOINT RightHandThumb4
													{
														OFFSET -4.843834 -2.796585 2.796590
														CHANNELS 3 Xrotation Yrotation Zrotation
														End Site
														{
															OFFSET 0.000000 0.000000 0.000000
														}
													}
												}
											}
										}
										JOINT RightHandIndex1
										{
											OFFSET -18.389870 -0.922424 4.596786
											CHANNELS 3 Xrotation Yrotation Zrotation
											JOINT RightHandIndex2
											{
												OFFSET -4.711273 0.000000 0.000000
												CHANNELS 3 Xrotation Yrotation Zrotation
												JOINT RightHandIndex3
												{
													OFFSET -2.886131 0.000000 0.000000
													CHANNELS 3 Xrotation Yrotation Zrotation
													JOINT RightHandIndex4
													{
														OFFSET -6.145920 0.000000 0.000000
														CHANNELS 3 Xrotation Yrotation Zrotation
														End Site
														{
															OFFSET 0.000000 0.000000 0.000000
														}
													}
												}
											}
										}
										JOINT RightHandMiddle1
										{
											OFFSET -18.013008 0.000000 0.000000
											CHANNELS 3 Xrotation Yrotation Zrotation
											JOINT RightHandMiddle2
											{
												OFFSET -4.946693 0.000000 0.000000
												CHANNELS 3 Xrotation Yrotation Zrotation
												JOINT RightHandMiddle3
												{
													OFFSET -3.342232 0.000000 0.000000
													CHANNELS 3 Xrotation Yrotation Zrotation
													JOINT RightHandMiddle4
													{
														OFFSET -4.461754 0.000000 0.000000
														CHANNELS 3 Xrotation Yrotation Zrotation
														End Site
														{
															OFFSET 0.000000 0.000000 0.000000
														}
													}
												}
											}
										}
										JOINT RightHandRing1
										{
											OFFSET -15.849876 -0.102936 -4.126237
											CHANNELS 3 Xrotation Yrotation Zrotation
											JOINT RightHandRing2
											{
												OFFSET -3.527054 0.000000 0.000000
												CHANNELS 3 Xrotation Yrotation Zrotation
												JOINT RightHandRing3
												{
													OFFSET -2.961098 0.000000 0.000000
													CHANNELS 3 Xrotation Yrotation Zrotation
													JOINT RightHandRing4
													{
														OFFSET -4.927200 0.000000 0.000000
														CHANNELS 3 Xrotation Yrotation Zrotation
														End Site
														{
															OFFSET 0.000000 0.000000 0.000000
														}
													}
												}
											}
										}
										JOINT RightHandPinky1
										{
											OFFSET -12.791786 -0.832077 -6.799222
											CHANNELS 3 Xrotation Yrotation Zrotation
											JOINT RightHandPinky2
											{
												OFFSET -3.327133 0.000000 0.000000
												CHANNELS 3 Xrotation Yrotation Zrotation
												JOINT RightHandPinky3
												{
													OFFSET -3.014900 0.000000 0.000000
													CHANNELS 3 Xrotation Yrotation Zrotation
													JOINT RightHandPinky4
													{
														OFFSET -5.847786 0.000000 0.000000
														CHANNELS 3 Xrotation Yrotation Zrotation
														End Site
														{
															OFFSET 0.000000 0.000000 0.000000
														}
													}
												}
											}
										}
									}
								}
							}
						}
					}
				}
			}
		}
	}
	JOINT LeftUpLeg
	{
		OFFSET 13.026900 -6.336304 -1.092800
		CHANNELS 3 Xrotation Yrotation Zrotation
		JOINT LeftLeg
		{
			OFFSET 0.524474 -46.096886 9.782700
			CHANNELS 3 Xrotation Yrotation Zrotation
			JOINT LeftFoot
			{
				OFFSET -0.524474 -53.427422 -12.948200
				CHANNELS 3 Xrotation Yrotation Zrotation
				JOINT LeftToeBase
				{
					OFFSET 0.192200 -14.009700 16.364100
					CHANNELS 3 Xrotation Yrotation Zrotation
					JOINT LeftToe_End
					{
						OFFSET -1.784700 -0.561700 9.474800
						CHANNELS 3 Xrotation Yrotation Zrotation
						End Site
						{
							OFFSET 0.000000 0.000000 0.000000
						}
					}
				}
			}
		}
	}
	JOINT RightUpLeg
	{
		OFFSET -12.883000 -6.336304 -1.092800
		CHANNELS 3 Xrotation Yrotation Zrotation
		JOINT RightLeg
		{
			OFFSET -0.524587 -46.096825 9.782800
			CHANNELS 3 Xrotation Yrotation Zrotation
			JOINT RightFoot
			{
				OFFSET 0.524587 -53.427383 -12.948300
				CHANNELS 3 Xrotation Yrotation Zrotation
				JOINT RightToeBase
				{
					OFFSET -0.192200 -14.009700 16.364100
					CHANNELS 3 Xrotation Yrotation Zrotation
					JOINT RightToe_End
					{
						OFFSET 1.784700 -0.561700 9.474800
						CHANNELS 3 Xrotation Yrotation Zrotation
						End Site
						{
							OFFSET 0.000000 0.000000 0.000000
						}
					}
				}
			}
		}
	}
}
MOTION
Frames: 4
Frame Time: 0.016667
5.041821 104.598885 145.046112 4.439729 -6.229787 -2.399959 16.269815 3.251940 0.779098 20.044445 7.628496 3.273777 0.000000 0.000000 0.000000 19.863227 7.768544 3.728082 -47.889957 28.030584 -28.867200 36.505394 -35.951008 36.350325 0.000002 -0.000001 0.000000 -3.629736 -15.408606 -10.382902 0.000000 0.000000 0.000000 -11.971371 6.480801 -65.205063 0.000034 -64.653922 0.000020 10.348442 11.182153 -5.507170 40.231546 -29.869684 63.220654 101.357063 66.798082 231.385854 -12.925914 -19.532203 6.920528 0.000001 -0.000002 -0.000001 0.326281 4.094614 -16.584184 0.575169 2.533363 -25.578753 0.067066 0.884904 -8.668910 -0.000001 0.000001 0.000001 -1.060370 2.730911 -36.207540 1.715305 4.142495 -44.971796 1.052595 3.351995 -34.858171 0.000001 0.000000 -0.000000 -3.216820 3.157184 -55.387804 2.284630 4.641479 -52.395829 3.600486 5.402301 -67.342960 -0.000000 0.000001 -0.000002 -4.251956 3.052451 -58.936972 2.013186 4.419837 -48.960476 2.796345 4.992723 -58.483672 0.000001 0.000001 -0.000001 -0.264778 19.358394 4.692118 0.000000 0.000000 0.000000 -45.642743 8.432335 36.901466 0.000253 101.974526 -0.000224 -5.090108 -12.734917 15.640855 33.081789 30.015236 -8.052851 13.702070 -51.628447 20.266336 8.634627 -42.419153 1.849757 -0.000001 0.000001 0.000003 0.112180 -3.191139 17.097154 3.780017 -4.573989 79.132051 3.780014 -4.573992 79.132058 -0.000002 0.000000 -0.000002 2.613386 -8.387976 27.063296 5.675777 -4.544650 102.647115 5.225976 -4.622370 97.022946 -0.000000 -0.000002 -0.000000 1.668049 -5.863650 57.331529 4.190482 -4.633772 84.242481 4.352826 -4.647214 86.249020 -0.000000 0.000001 0.000000 1.874826 -6.023817 60.182443 3.825270 -4.582413 79.698896 3.825252 -4.582413 79.698909 0.000000 -0.000000 -0.000001 -50.091668 9.678788 8.508390 36.386549 -5.937264 3.323003 0.679965 -13.749966 -2.198361 4.494570 -1.670367 0.264126 0.000000 -0.000000 -0.000000 -22.528291 3.083291 7.156796 45.252848 3.278573 -2.539744 -25.828816 -0.775076 0.048040 -1.310682 0.000000 -0.000001 0.000000 -0.000000 0.000000 
4.761385 104.918404 144.023468 3.545573 -6.459424 -2.857502 16.082126 3.269152 0.917876 19.617236 7.612216 3.331498 0.000000 0.000000 0.000000 19.436454 7.747063 3.778476 -47.550643 27.672098 -28.991370 38.119252 -35.320660 37.422746 -0.000001 0.000000 -0.000000 -3.381582 -14.879782 -10.335932 0.000000 0.000000 0.000000 -13.224280 6.607375 -66.021879 0.000015 -61.657750 0.000030 11.729640 10.831203 -6.290860 40.231546 -29.869677 63.220661 101.357084 66.798096 231.385799 -12.925896 -19.532217 6.920532 0.000000 0.000001 0.000002 0.332587 4.115498 -16.628109 0.574480 2.531938 -25.563265 0.066840 0.883345 -8.653494 -0.000001 0.000001 -0.000001 -1.056182 2.737762 -36.217006 1.715067 4.142256 -44.968517 1.052590 3.351987 -34.858174 -0.000000 0.000003 0.000001 -3.220683 3.154169 -55.385673 2.283631 4.640711 -52.383545 3.599325 5.401819 -67.330625 0.000002 -0.000000 0.000002 -4.265350 3.043556 -58.932942 2.013855 4.420414 -48.969161 2.797100 4.993180 -58.492340 -0.000001 0.000000 0.000001 -0.354252 18.524214 5.452759 0.000000 0.000000 0.000000 -46.329648 9.134346 35.856089 0.000050 102.007782 -0.000012 -4.606134 -14.524233 16.388233 33.376501 32.501015 -7.034572 15.577886 -52.554317 22.116834 7.397179 -41.000567 0.906551 -0.000001 0.000000 -0.000001 0.230065 -3.590282 18.982730 3.761839 -4.570472 78.904073 3.761836 -4.570469 78.904094 0.000001 0.000001 -0.000002 2.920877 -8.736732 28.390127 5.675512 -4.544705 102.644021 5.225972 -4.622380 97.022967 0.000000 0.000002 0.000000 1.674758 -5.879985 58.233100 4.191154 -4.633834 84.251039 4.353524 -4.647268 86.257585 -0.000000 -0.000002 -0.000000 1.781885 -5.983843 61.063476 3.804123 -4.578542 79.434157 3.804122 -4.578557 79.434205 0.000001 -0.000001 0.000001 -49.375154 9.774463 9.275299 36.203015 -5.646375 3.652720 -1.246296 -11.170682 -2.685247 4.289525 -1.961968 0.567513 -0.000000 0.000000 0.000000 -21.839055 2.829906 7.459693 44.484609 3.538356 -2.254399 -25.341204 -0.535226 -0.175673 -1.095155 -0.000000 0.000000 0.000000 -0.000000 0.000000 
4.507605 105.175255 143.055756 2.639915 -6.577763 -3.284210 15.911708 3.289447 1.098857 19.228929 7.527440 3.365999 0.000000 0.000000 0.000000 19.049731 7.657294 3.800927 -47.323034 27.067681 -28.852584 39.262127 -34.801999 37.979048 -0.000001 0.000002 -0.000001 -3.121596 -14.392986 -10.230464 0.000000 0.000000 0.000000 -14.562998 6.814961 -66.747293 0.000005 -58.543833 -0.000003 13.133014 10.507489 -7.034955 40.231552 -29.869694 63.220661 101.357118 66.798096 231.385772 -12.925879 -19.532212 6.920531 0.000000 0.000002 0.000001 0.338918 4.136353 -16.672027 0.573801 2.530520 -25.547841 0.066597 0.881778 -8.638107 -0.000001 0.000000 -0.000000 -1.051984 2.744599 -36.226504 1.714825 4.142012 -44.965212 1.052593 3.351996 -34.858164 -0.000000 0.000000 -0.000000 -3.224551 3.151137 -55.383593 2.282637 4.639954 -52.371247 3.598169 5.401338 -67.318317 0.000000 0.000001 0.000001 -4.278735 3.034642 -58.928912 2.014518 4.420989 -48.977818 2.797850 4.993638 -58.501028 -0.000001 -0.000000 0.000001 -0.392654 17.683336 6.225818 0.000000 0.000000 0.000000 -47.721866 9.660095 34.897810 -0.000100 101.754464 0.000123 -3.782703 -15.360853 17.241467 33.184252 33.896473 -6.641104 19.104924 -53.466403 25.625772 4.384505 -38.344385 -1.908730 -0.000001 0.000000 0.000003 0.430315 -4.130906 22.535890 3.754279 -4.568976 78.809031 3.754254 -4.568981 78.809045 -0.000000 0.000001 0.000000 3.498099 -9.251696 31.121511 5.680930 -4.543497 102.712392 5.225982 -4.622394 97.022967 0.000001 0.000001 -0.000000 1.784264 -5.966298 59.751519 4.181611 -4.632884 84.132836 4.343949 -4.646626 86.139368 0.000000 0.000001 -0.000000 1.716418 -5.975407 62.613956 3.744626 -4.567087 78.688000 3.744632 -4.567077 78.688034 -0.000000 -0.000001 0.000001 -48.741555 10.106604 10.003544 36.333130 -5.603943 4.000543 -3.660125 -8.427422 -2.865824 4.116053 -2.409848 0.997265 -0.000000 0.000000 0.000000 -21.153205 2.547088 7.819997 43.848868 3.812582 -2.084673 -24.881621 -0.420082 -0.448857 -0.872604 0.000001 0.000002 0.000000 -0.000000 0.000000 
4.286549 105.391220 142.128433 1.724814 -6.558668 -3.659040 15.744177 3.313439 1.314560 18.892730 7.360077 3.379200 0.000000 0.000000 0.000000 18.719016 7.487798 3.782730 -47.227978 26.281468 -28.461883 39.969912 -34.405142 38.024025 0.000001 0.000001 0.000001 -2.920870 -13.934226 -10.054510 0.000000 0.000000 0.000000 -15.900428 7.130563 -67.405040 -0.000001 -55.377340 -0.000025 14.612000 10.219451 -7.765578 40.231539 -29.869684 63.220661 101.357111 66.798082 231.385799 -12.925862 -19.532212 6.920518 -0.000001 0.000001 -0.000004 0.345261 4.157187 -16.715911 0.573115 2.529095 -25.532458 0.066364 0.880228 -8.622719 0.000000 0.000001 0.000003 -1.047806 2.751440 -36.235967 1.714582 4.141772 -44.961909 1.052591 3.351998 -34.858168 -0.000000 0.000000 0.000000 -3.228418 3.148124 -55.381469 2.281647 4.639185 -52.358946 3.597009 5.400849 -67.306002 0.000002 0.000001 -0.000003 -4.292123 3.025741 -58.924868 2.015188 4.421573 -48.986475 2.798603 4.994104 -58.509654 -0.000003 0.000000 -0.000000 -0.415600 16.816237 7.010210 0.000000 0.000000 0.000000 -50.064849 9.752490 34.132682 0.000014 102.015241 -0.000035 -0.832189 -16.814196 17.983345 32.697926 34.534878 -6.548621 23.673091 -54.235496 30.132875 0.999313 -34.867385 -5.347172 -0.000001 -0.000002 -0.000001 0.718700 -4.714158 27.043101 3.751689 -4.568470 78.776588 3.751688 -4.568493 78.776588 0.000003 -0.000004 0.000004 4.252589 -9.772389 34.665983 5.688881 -4.541686 102.812590 5.225972 -4.622374 97.022967 0.000000 0.000003 0.000000 1.962004 -6.088675 61.568971 4.166822 -4.631348 83.949377 4.329086 -4.645607 85.955888 0.000000 -0.000001 0.000000 1.641903 -5.979096 64.563511 3.670843 -4.551742 77.759907 3.670861 -4.551763 77.759989 0.000001 -0.000002 0.000000 -47.862230 9.575369 10.841410 36.538493 -3.735054 3.775641 -6.206112 -6.729700 -3.045737 3.731117 -2.876475 1.489686 -0.000001 -0.000000 0.000000 -20.433913 2.191746 8.193828 43.287768 4.047528 -2.038841 -24.395284 -0.392896 -0.907398 -0.815235 0.000001 0.000000 0.000000 -0.000000 0.000000 
